# xmcd CD database file
#
# Track frame offsets:
#	150
#	16929
#	28947
#	44110
#	69067
#	87415
#	99872
#	121527
#	139683
#	157436
#	181123
#	198523
#
# Disc length: 2831 seconds
#
# Revision: 0
# Processed by: cddbd v1.5.2PL0 Copyright (c) Steve Scherf et al.
# Submitted via: CDex 1.70beta2
#
DISCID=9b0b0d0c
DTITLE=cheryl wheeler  - half a book 
DYEAR=1900
DGENRE=Country
TTITLE0=Cheryl Wheeler - Emotional Response
TTITLE1=Cheryl Wheeler - I Don't Have the Time
TTITLE2=Cheryl Wheeler - I Don't Reach You Anymore
TTITLE3=Cheryl Wheeler - Tell Him Goodbye
TTITLE4=Cheryl Wheeler - In Your Heart
TTITLE5=Cheryl Wheeler - Rainin'
TTITLE6=Cheryl Wheeler - I See Your Eyes
TTITLE7=Cheryl Wheeler - Thinkin Of Leaving
TTITLE8=Wheeler, Cheryl - Summer Fly
TTITLE9=Cheryl Wheeler - Addicted
TTITLE10=Cheryl Wheeler - Behind The Barn
TTITLE11=Cheryl Wheeler - Game Of Love
EXTD=
EXTT0=
EXTT1=
EXTT2=
EXTT3=
EXTT4=
EXTT5=
EXTT6=
EXTT7=
EXTT8=
EXTT9=
EXTT10=
EXTT11=
PLAYORDER=
